<svg id="Layer_1" data-name="Layer 1" xmlns="http://www.w3.org/2000/svg" xmlns:xlink="http://www.w3.org/1999/xlink" viewBox="0 0 364.88 402.04"><defs><style>.cls-1{fill:none;}.cls-2,.cls-8{fill:#1d3f57;}.cls-3,.cls-7{fill:#d96f18;}.cls-4{fill:#1c1b1a;}.cls-5{clip-path:url(#clip-path);}.cls-6{fill:#fff;}.cls-7,.cls-8{fill-rule:evenodd;}</style><clipPath id="clip-path" transform="translate(-9.67 -10.61)"><path class="cls-1" d="M323.39,92.21l-.14-.89-.76-.47C286.23,68,237.82,54.94,189.67,54.94S93.15,68,56.89,90.82l-.76.48-.15.89c-2.07,12.83-8.06,58.63,1.75,109.6,6.83,35.46,19.83,66.78,38.62,93.11C118.87,326.45,150,351,188.86,368l.8.35.8-.35c39.25-17.21,70.61-42,93.22-73.8,18.83-26.46,31.77-57.88,38.46-93.38C331.71,150,325.52,104.84,323.39,92.21Z"/></clipPath></defs><title>Respro_Health&amp;amp;Safety</title><path class="cls-2" d="M364.1,76.6l-2.79-12.86-10.95-7.31c-44.24-29.55-101.3-45.82-160.68-45.82S73.24,26.88,29,56.43L18,63.8l-2.74,13c-.52,2.46-12.6,61.16.6,130.53,18,94.69,73.83,163.9,161.4,200.16l12.5,5.17,12.49-5.21c88-36.68,144-106,161.76-200.55C377,137.59,364.63,79.06,364.1,76.6Z" transform="translate(-9.67 -10.61)"/><path class="cls-3" d="M359.55,77.78l-2.39-11-9.39-6.27c-43.48-29-99.62-45-158.09-45s-114.61,16-158.09,45l-9.47,6.32L19.77,77.94c-.51,2.43-12.4,60.26.62,128.71C38.1,299.72,92.94,367.74,179,403.37l10.72,4.43,10.7-4.46c86.49-36,141.47-104.21,159-197.12C372.28,137.84,360.08,80.2,359.55,77.78Z" transform="translate(-9.67 -10.61)"/><path class="cls-4" d="M47.09,84.87c36.13-24.13,86.66-40.34,142.59-40.34S296.14,60.74,332.27,84.87c0,0,46.69,215-142.59,293.85C1.51,300.83,47.09,84.87,47.09,84.87Z" transform="translate(-9.67 -10.61)"/><g class="cls-5"><path class="cls-3" d="M317.94,156.23,230.2,178.42l71.05-55.71-79,46.35,53.52-73.92L212,162.2c10.69-28.79,28.51-76.85,31.7-86.16-5.69,11.07-28.6,55.08-42.35,81.48,1.88-27.44,5.1-74.51,6.06-91.31-3.18,16.52-12.14,61.29-17.74,89.22L170.27,66.89l7.46,90.9L134.54,78.05l32.74,85.73c-24.74-25.24-53.23-54.25-64.23-65.18,9.45,12.52,34.6,46,54.84,72.94L78.72,127,152,181.85l-88.5-20.62,114.15,43.24h31Z" transform="translate(-9.67 -10.61)"/><polygon class="cls-2" points="288.69 146.9 275.04 160.02 235.12 118.42 232.12 119.71 219.1 105.91 192.06 130.02 187.58 130.02 147.46 158.1 120.06 135.38 92.52 158.09 86.96 154.71 45.72 185.41 34.9 178.81 0.04 213.91 364.88 214.69 288.69 146.9"/></g><path class="cls-6" d="M189.66,370.41l-.79-.35C149.29,353,117.62,328,94.73,296c-19-26.56-32.07-58.15-39-93.9-10-52-3.76-98.25-1.61-111.18l.15-.88.75-.48c36.66-23.31,85.73-36.68,134.61-36.68s98,13.38,134.64,36.7l.75.48.15.87c2.21,12.75,8.66,58.38-1.11,110.17-6.74,35.79-19.79,67.47-38.8,94.17-23,32.28-54.88,57.45-94.85,74.82ZM58,92.42c-2.24,13.88-7.93,58.67,1.74,108.9,6.78,35.17,19.66,66.24,38.29,92.34,22.3,31.24,53.15,55.6,91.67,72.4,38.92-17.07,70-41.67,92.41-73.13,18.66-26.23,31.49-57.38,38.12-92.6h0c9.43-50,3.55-94.2,1.25-107.88-36-22.64-83.93-35.61-131.76-35.61S93.91,69.8,58,92.42Z" transform="translate(-9.67 -10.61)"/><path class="cls-6" d="M345.88,206.31a10.8,10.8,0,0,0-10.78-10.77H44.5a10.8,10.8,0,0,0-10.78,10.77v51H345.88Z" transform="translate(-9.67 -10.61)"/><path class="cls-7" d="M190.15,205.92H220.7c3.37,0,6.61.09,8.8,1.29a7.19,7.19,0,0,1,3.28,6.58c-.15,2.64-1.28,5.47-2.06,8.43-1,3.71-2.1,7-4.68,8.71-3,1.93-7.44,1.57-12,1.57h-13.5c-.94,4.61-3.54,9.19-2.52,14.55H179.76c0-.56.48-1.24.83-1.94a35.23,35.23,0,0,0,2.45-7c2.11-8.15,4.23-16.31,6.47-24.83.61-2.36,1.37-4.64.64-7.13C190.09,206.12,190,205.94,190.15,205.92Zm12.1,19.82c3-.15,5.82.21,8.52,0a6.15,6.15,0,0,0,2.44-.55c1.37-.87,1.74-3.42,2.15-5,.26-1,.5-1.93.75-2.87s.72-2.11.47-3c-.88-3-7.22-1.14-10.78-1.67C204.44,216.86,203.45,221.42,202.25,225.74Z" transform="translate(-9.67 -10.61)"/><path class="cls-7" d="M269.79,229.36c1.52,6,1.66,13.79,5,17.69H257.33c-1.05-6-2.28-11.76-3.37-17.69h-4c-.67,2.2-1.31,4.53-2,6.94a41,41,0,0,0-1.68,7.23,10.89,10.89,0,0,0,.28,3.52H228.28c-.08-.45.35-.89.57-1.3,1.51-2.86,2.35-6.49,3.37-10.28,2-7.46,3.89-14.92,6-22.79.6-2.21,1.12-4.35.48-6.48-.07-.08-.15-.26,0-.28h29.42c3.17,0,6.54,0,8.61,1.11a7.71,7.71,0,0,1,3.85,7.88c-.26,1.64-.95,3.63-1.5,5.74-.72,2.73-1,5.44-2.54,6.95S272.63,229.5,269.79,229.36Zm-18.08-7c2.85-.19,6.34.25,8.8,0s2.68-2,3.2-4.08a14.93,14.93,0,0,0,.93-4.44c-1.59-2.23-6.88-.8-10.31-1.21C253.29,215.75,252.63,219.21,251.71,222.41Z" transform="translate(-9.67 -10.61)"/><path class="cls-7" d="M299.3,206c4.73-.22,9.8-.09,14.81-.09,4.82,0,10.55-.36,13.3,1.57a8.47,8.47,0,0,1,3.37,6.58c.1,3.13-.87,5.62-1.59,8.34-1.33,5.08-2.84,10.8-4.31,15.84-.78,2.66-1.85,5.14-3.56,6.49-3.49,2.73-10.8,2.31-16.95,2.31h-9.66c-4,0-8.18.24-10.68-1a7.76,7.76,0,0,1-3.93-6.68c-.06-2.92,1.11-5.52,1.87-8.53,1.21-4.79,2.74-11.5,4.31-16.39.77-2.37,1.88-5,3.94-6.39S295.76,206.18,299.3,206Zm3.93,7.32c-1.27.94-1.73,4-2.24,5.93-1.33,5.14-2.95,11.14-4.22,16.21-.27,1.07-.93,2.56-.74,3.34.36,1.6,3,1.47,5.53,1.47,2.23,0,5.32.43,6.55-.46.58-.41.93-1.83,1.22-2.87,1.87-6.76,3.42-12.92,5.15-19.36.27-1,.85-2.61.66-3.43-.51-2.19-7.07-1.63-9.56-1.39A5.08,5.08,0,0,0,303.23,213.33Z" transform="translate(-9.67 -10.61)"/><path class="cls-8" d="M58.84,205.79H86.76c3.13,0,6.2,0,8.24,1.08A7.7,7.7,0,0,1,98.75,214,37.38,37.38,0,0,1,97.44,220c-.68,2.68-1,5.82-2.54,7.37-1.33,1.39-3.72,2-6.46,1.75,1.44,6,1.57,13.82,4.78,17.64H76.64c-1.16-5.8-2.19-11.7-3.28-17.55a27,27,0,0,0-3.75-.09c-.73,2.37-1.4,4.91-2.06,7.56-.8,3.19-2,6.75-1.12,10.08H48.81c2.95-5.35,4-12.08,5.72-18.9,1.16-4.53,2.51-9.83,3.75-14.74.58-2.32,1.23-4.64.56-7C58.86,205.93,58.67,205.84,58.84,205.79ZM71.3,222.18c2.66-.16,5.62.22,8,0,2.56-.23,2.84-1.88,3.38-4.07.26-1.12,1.24-3.07.83-4.36-.74-2.41-7.28-.58-9.73-1.17C72.78,215.64,72.09,219,71.3,222.18Z" transform="translate(-9.67 -10.61)"/><path class="cls-8" d="M141.53,205.79c-.23,2.67-.59,5.2-.84,7.83-4.9-1.89-12.86-.59-19.21-1-1,3.21-1.69,6.66-2.53,10,5.93-.06,13.49.72,18.56-.58-.42,2.63-1.38,5.54-2,8.32-4.75-1.66-12.13-.57-18.17-.88-1.17,3.34-1.84,7.21-2.81,10.76,6.39-.4,14.7.91,19.58-.88-.59,2.52-1.92,5.11-2.72,7.73H96.56c2.84-5.41,4.14-12.27,5.81-19.08.77-3.14,1.54-6.55,2.43-10.07,1-3.76,2.63-8,1.78-11.85a.16.16,0,0,0-.09-.2c0-.08,0-.09.09-.1Z" transform="translate(-9.67 -10.61)"/><path class="cls-8" d="M184.83,206c-.26,2.77-.6,5.48-.84,8.27-.47.14-1.61-.72-2.44-1-3-.94-7.14-.49-11.61-.49-2.69,0-7.41-.46-8.63.69a6.88,6.88,0,0,0-1.12,4.18c.43,1.68,4.32,1.26,7,1.26,4.1,0,8.76-.66,11.24.78a5.74,5.74,0,0,1,2.35,4.08c.18,2-.55,4-1,6-.44,1.84-1,3.69-1.4,5.54-.87,3.61-1.78,7.74-4.22,9.72-3.42,2.77-11,1.95-17.05,1.95H138.27c.44-2.7.78-5.48,1.12-8.26,2.94,2,7.48,1.45,13,1.45h4.5c1.64,0,3.49.21,4.4-.1,1.12-.37,2.34-3.26,1.79-4.76-.44-1.17-2.85-1-4.78-1-6.48,0-15.27,1.07-15.93-5a20,20,0,0,1,.94-6.32c1.35-5.29,2.52-12.91,6.55-15.46a14.27,14.27,0,0,1,5.9-1.65c4.87-.35,9.73,0,14.53,0Z" transform="translate(-9.67 -10.61)"/><path class="cls-2" d="M44.5,307.47H335.1a10.81,10.81,0,0,0,10.78-10.77V257.35H33.72V296.7A10.81,10.81,0,0,0,44.5,307.47Z" transform="translate(-9.67 -10.61)"/><text x="-9.67" y="-10.61"/></svg>